HIERARCHY
ROOT joint_Root
{
	OFFSET 0.0 0.0 0.0
	CHANNELS 6 Xposition Yposition Zposition Zrotation Xrotation Yrotation 
	JOINT Hips
	{
		OFFSET -0.726466 93.3139 -2.00062
		CHANNELS 6 Xposition Yposition Zposition Zrotation Xrotation Yrotation 
		JOINT Spine
		{
			OFFSET 15.7357 0.0 0.0
			CHANNELS 6 Xposition Yposition Zposition Zrotation Xrotation Yrotation 
			JOINT Chest
			{
				OFFSET 8.98455 -0.406207 0.0
				CHANNELS 6 Xposition Yposition Zposition Zrotation Xrotation Yrotation 
				JOINT Neck
				{
					OFFSET 16.3773 0.0 0.0
					CHANNELS 6 Xposition Yposition Zposition Zrotation Xrotation Yrotation 
					JOINT Head
					{
						OFFSET 6.45672 0.0 0.0
						CHANNELS 6 Xposition Yposition Zposition Zrotation Xrotation Yrotation 
						End Site
						{
							OFFSET 0.0 0.0 0.0
						}
					}
				}
				JOINT Shoulder_L
				{
					OFFSET 12.9942 -0.242716 4.98039
					CHANNELS 6 Xposition Yposition Zposition Zrotation Xrotation Yrotation 
					JOINT UpperArm_L
					{
						OFFSET 5.34809 0.0 0.0
						CHANNELS 6 Xposition Yposition Zposition Zrotation Xrotation Yrotation 
						JOINT LowerArm_L
						{
							OFFSET 24.3286 1.87007e-05 0.0
							CHANNELS 6 Xposition Yposition Zposition Zrotation Xrotation Yrotation 
							JOINT Hand_L
							{
								OFFSET 22.2916 0.0 0.0
								CHANNELS 6 Xposition Yposition Zposition Zrotation Xrotation Yrotation 
								End Site
								{
									OFFSET 0.0 0.0 0.0
								}
							}
						}
					}
				}
				JOINT Shoulder_R
				{
					OFFSET 12.9945 -0.242716 -4.98039
					CHANNELS 6 Xposition Yposition Zposition Zrotation Xrotation Yrotation 
					JOINT UpperArm_R
					{
						OFFSET -5.34813 0.0 0.0
						CHANNELS 6 Xposition Yposition Zposition Zrotation Xrotation Yrotation 
						JOINT LowerArm_R
						{
							OFFSET -24.3289 0.000322201 0.0
							CHANNELS 6 Xposition Yposition Zposition Zrotation Xrotation Yrotation 
							JOINT Hand_R
							{
								OFFSET -22.2915 -0.000108084 0.0
								CHANNELS 6 Xposition Yposition Zposition Zrotation Xrotation Yrotation 
								End Site
								{
									OFFSET 0.0 0.0 0.0
								}
							}
						}
					}
				}
			}
		}
		JOINT UpperLeg_L
		{
			OFFSET -2.19248 -6.46944 0.0
			CHANNELS 6 Xposition Yposition Zposition Zrotation Xrotation Yrotation 
			JOINT LowerLeg_L
			{
				OFFSET 39.0811 0.0 -1.23785e-05
				CHANNELS 6 Xposition Yposition Zposition Zrotation Xrotation Yrotation 
				JOINT Foot_L
				{
					OFFSET 40.9854 0.0 -1.26872e-05
					CHANNELS 6 Xposition Yposition Zposition Zrotation Xrotation Yrotation 
					JOINT Toes_L
					{
						OFFSET 11.7543 0.0 0.0
						CHANNELS 6 Xposition Yposition Zposition Zrotation Xrotation Yrotation 
						End Site
						{
							OFFSET 0.0 0.0 0.0
						}
					}
				}
			}
		}
		JOINT UpperLeg_R
		{
			OFFSET -2.19251 6.46944 0.0
			CHANNELS 6 Xposition Yposition Zposition Zrotation Xrotation Yrotation 
			JOINT LowerLeg_R
			{
				OFFSET -39.0811 -0.00228153 -0.0401928
				CHANNELS 6 Xposition Yposition Zposition Zrotation Xrotation Yrotation 
				JOINT Foot_R
				{
					OFFSET -40.9854 0.0 0.0
					CHANNELS 6 Xposition Yposition Zposition Zrotation Xrotation Yrotation 
					JOINT Toes_R
					{
						OFFSET -11.7543 0.0 0.0
						CHANNELS 6 Xposition Yposition Zposition Zrotation Xrotation Yrotation 
						End Site
						{
							OFFSET 0.0 0.0 0.0
						}
					}
				}
			}
		}
	}
}
MOTION
Frames:	4
Frame Time:	0.0333333
0.000000 0.000000 0.000000 0.000000 0.000000 -0.000000 -1.695030 92.277600 -2.595200 87.552000 0.369017 2.911910 15.735700 0.000005 -0.000001 79.814200 87.564200 -79.382800 8.984550 -0.406207 -0.000000 -2.967910 -0.901527 0.839645 16.377300 -0.000001 -0.000001 -1.320520 -1.629330 -0.486203 6.456720 -0.000001 -0.000000 -3.547140 -1.447060 5.490790 12.994200 -0.242716 4.980390 -84.154300 -12.090200 -63.950100 5.348090 -0.000007 -0.000001 -69.580600 -54.430000 -98.737000 24.328600 0.000019 0.000005 6.860510 3.767260 -61.360900 22.291600 -0.000001 0.000005 22.569400 5.574800 -9.936450 12.994500 -0.242716 -4.980390 92.195200 -4.878590 -65.736800 -5.348130 -0.000001 -0.000004 -57.493800 -55.343000 -106.552000 -24.328900 0.000322 -0.000009 1.648440 1.525000 -47.259100 -22.291500 -0.000108 -0.000004 23.905700 5.500370 -6.548270 -2.192480 -6.469440 -0.000000 -167.978000 -15.958500 -3.276390 39.081100 -0.000007 -0.000012 -0.148534 0.423917 19.309900 40.985400 -0.000006 -0.000013 -6.919390 3.615640 -61.003000 11.754300 -0.000000 0.000003 -0.000138 -0.001356 -16.629200 -2.192510 6.469440 -0.000001 175.604000 20.373200 178.213000 -39.081100 -0.002282 -0.040193 0.021757 -0.053550 18.994900 -40.985400 0.000008 0.000006 -0.729662 1.757040 -62.682600 -11.754300 -0.000006 -0.000006 -0.006239 -0.072991 -19.543900
0.000000 0.000000 0.000000 0.000000 0.000000 -0.000000 -1.684290 92.280200 -2.566820 87.564900 0.315557 2.922950 15.735700 0.000005 -0.000001 79.853800 87.552200 -79.434600 8.984550 -0.406207 -0.000000 -2.943630 -0.901244 0.815344 16.377300 -0.000001 -0.000001 -1.295920 -1.634610 -0.521754 6.456720 -0.000001 -0.000000 -3.507300 -1.490030 5.604270 12.994200 -0.242716 4.980390 -84.132900 -12.073600 -63.836000 5.348090 -0.000007 -0.000001 -69.519100 -54.405900 -98.742100 24.328600 0.000019 0.000005 6.715090 3.681070 -61.396700 22.291600 -0.000001 0.000005 22.571000 5.574070 -9.898800 12.994500 -0.242716 -4.980390 92.171100 -4.818180 -65.707600 -5.348130 -0.000001 -0.000004 -57.516700 -55.372400 -106.550000 -24.328900 0.000322 -0.000009 1.700190 1.566720 -47.371500 -22.291500 -0.000108 -0.000004 23.805300 5.496370 -6.388160 -2.192480 -6.469440 -0.000000 -167.982000 -15.991100 -3.213280 39.081100 -0.000007 -0.000012 -0.149650 0.428150 19.266100 40.985400 -0.000006 -0.000013 -6.925310 3.591300 -61.001800 11.754300 -0.000000 0.000003 -0.000142 -0.001387 -16.630400 -2.192510 6.469440 -0.000001 175.579000 20.365500 178.240000 -39.081100 -0.002282 -0.040193 0.021731 -0.053524 18.978600 -40.985400 0.000008 0.000006 -0.715146 1.773850 -62.680000 -11.754300 -0.000006 -0.000006 -0.006291 -0.073459 -19.563000
0.000000 0.000000 0.000000 0.000000 0.000000 -0.000000 -1.687700 92.273600 -2.548660 87.553600 0.267846 2.886480 15.735700 0.000005 -0.000001 80.031100 87.558700 -79.615800 8.984550 -0.406207 -0.000000 -2.953880 -0.883761 0.807910 16.377300 -0.000001 -0.000001 -1.306720 -1.634470 -0.531517 6.456720 -0.000001 -0.000000 -3.523700 -1.557810 5.663760 12.994200 -0.242716 4.980390 -84.137400 -12.022700 -63.759000 5.348090 -0.000007 -0.000001 -69.363000 -54.448800 -98.688600 24.328600 0.000019 0.000005 6.778440 3.702720 -61.483800 22.291600 -0.000001 0.000005 22.394000 5.573930 -9.891220 12.994500 -0.242716 -4.980390 92.166900 -4.797980 -65.658900 -5.348130 -0.000001 -0.000004 -57.435500 -55.420700 -106.365000 -24.328900 0.000322 -0.000009 1.639760 1.502750 -47.528100 -22.291500 -0.000108 -0.000004 23.723100 5.495440 -6.350650 -2.192480 -6.469440 -0.000000 -167.969000 -16.003000 -3.244560 39.081100 -0.000007 -0.000012 -0.150856 0.430504 19.311500 40.985400 -0.000006 -0.000013 -6.937450 3.566740 -61.046400 11.754300 -0.000000 0.000003 -0.000140 -0.001372 -16.629800 -2.192510 6.469440 -0.000001 175.585000 20.338300 178.224000 -39.081100 -0.002282 -0.040193 0.020649 -0.050395 18.972600 -40.985400 0.000008 0.000006 -0.825409 1.842500 -62.690000 -11.754300 -0.000006 -0.000006 -0.006463 -0.074988 -19.625400
0.000000 0.000000 0.000000 0.000000 0.000000 -0.000000 -1.690550 92.277200 -2.522240 87.529600 0.203092 2.873740 15.735700 0.000005 -0.000001 80.329400 87.558200 -79.914900 8.984550 -0.406207 -0.000000 -2.948710 -0.858780 0.807149 16.377300 -0.000001 -0.000001 -1.388560 -1.642830 -0.501766 6.456720 -0.000001 -0.000000 -3.508690 -1.593470 5.638620 12.994200 -0.242716 4.980390 -84.133400 -11.990900 -63.684300 5.348090 -0.000007 -0.000001 -69.167800 -54.567500 -98.562100 24.328600 0.000019 0.000005 6.828820 3.710740 -61.611300 22.291600 -0.000001 0.000005 22.289800 5.570250 -9.701030 12.994500 -0.242716 -4.980390 92.159300 -4.779730 -65.653100 -5.348130 -0.000001 -0.000004 -57.056100 -55.592500 -105.915000 -24.328900 0.000322 -0.000009 1.637610 1.495130 -47.635700 -22.291500 -0.000108 -0.000004 23.614900 5.493120 -6.259060 -2.192480 -6.469440 -0.000000 -167.943000 -16.056700 -3.215720 39.081100 -0.000007 -0.000012 -0.149955 0.428252 19.298200 40.985400 -0.000006 -0.000013 -6.943870 3.530560 -61.061600 11.754300 -0.000000 0.000003 -0.000139 -0.001364 -16.629500 -2.192510 6.469440 -0.000001 175.625000 20.382000 178.217000 -39.081100 -0.002282 -0.040193 0.022888 -0.056953 18.958700 -40.985400 0.000008 0.000006 -0.700201 1.885700 -62.689800 -11.754300 -0.000006 -0.000006 -0.006554 -0.075785 -19.657900
